<?xml version="1.0" encoding="UTF-8" standalone="no"?>
<!DOCTYPE svg PUBLIC "-//W3C//DTD SVG 1.1//EN"
 "http://www.w3.org/Graphics/SVG/1.1/DTD/svg11.dtd">
<!-- Generated by graphviz version 15.1.0 (20260618.0150)
 -->
<!-- Title: AuthStateMachine Pages: 1 -->
<svg width="1683pt" height="347pt"
 viewBox="0.00 0.00 1683.00 347.00" xmlns="http://www.w3.org/2000/svg" xmlns:xlink="http://www.w3.org/1999/xlink">
<g id="graph0" class="graph" transform="scale(1 1) rotate(0) translate(4 343)">
<title>AuthStateMachine</title>
<polygon fill="white" stroke="none" points="-4,4 -4,-343 1679.41,-343 1679.41,4 -4,4"/>
<text xml:space="preserve" text-anchor="middle" x="837.7" y="-316" font-family="Arial" font-size="20.00">Spring Boot OIDC Authentication State Engine</text>
<!-- START -->
<g id="node1" class="node">
<title>START</title>
<ellipse fill="#dbeafe" stroke="#2563eb" stroke-width="2" cx="34.98" cy="-82.65" rx="34.98" ry="34.98"/>
<text xml:space="preserve" text-anchor="middle" x="34.98" y="-78.37" font-family="Arial" font-size="12.00">START</text>
</g>
<!-- REDIRECT_TO_IDP -->
<g id="node2" class="node">
<title>REDIRECT_TO_IDP</title>
<path fill="#eff6ff" stroke="#344054" d="M386.71,-100.9C386.71,-100.9 216.96,-100.9 216.96,-100.9 210.96,-100.9 204.96,-94.9 204.96,-88.9 204.96,-88.9 204.96,-76.4 204.96,-76.4 204.96,-70.4 210.96,-64.4 216.96,-64.4 216.96,-64.4 386.71,-64.4 386.71,-64.4 392.71,-64.4 398.71,-70.4 398.71,-76.4 398.71,-76.4 398.71,-88.9 398.71,-88.9 398.71,-94.9 392.71,-100.9 386.71,-100.9"/>
<text xml:space="preserve" text-anchor="middle" x="301.84" y="-85.5" font-family="Arial" font-size="12.00">REDIRECT_TO_IDP</text>
<text xml:space="preserve" text-anchor="middle" x="301.84" y="-71.25" font-family="Arial" font-size="12.00">Spring Security redirects to Auth0</text>
</g>
<!-- START&#45;&gt;REDIRECT_TO_IDP -->
<g id="edge1" class="edge">
<title>START&#45;&gt;REDIRECT_TO_IDP</title>
<path fill="none" stroke="#475467" d="M70.88,-82.65C102.55,-82.65 150.92,-82.65 195.14,-82.65"/>
<polygon fill="#475467" stroke="#475467" points="194.99,-85.45 202.99,-82.65 194.99,-79.85 194.99,-85.45"/>
<text xml:space="preserve" text-anchor="middle" x="137.46" y="-85.15" font-family="Arial" font-size="10.00">LOGIN_REQUESTED</text>
</g>
<!-- VALIDATE_TOKEN -->
<g id="node3" class="node">
<title>VALIDATE_TOKEN</title>
<path fill="#fef3c7" stroke="#344054" d="M758.21,-100.9C758.21,-100.9 587.71,-100.9 587.71,-100.9 581.71,-100.9 575.71,-94.9 575.71,-88.9 575.71,-88.9 575.71,-76.4 575.71,-76.4 575.71,-70.4 581.71,-64.4 587.71,-64.4 587.71,-64.4 758.21,-64.4 758.21,-64.4 764.21,-64.4 770.21,-70.4 770.21,-76.4 770.21,-76.4 770.21,-88.9 770.21,-88.9 770.21,-94.9 764.21,-100.9 758.21,-100.9"/>
<text xml:space="preserve" text-anchor="middle" x="672.96" y="-85.5" font-family="Arial" font-size="12.00">VALIDATE_TOKEN</text>
<text xml:space="preserve" text-anchor="middle" x="672.96" y="-71.25" font-family="Arial" font-size="12.00">OIDC token and email verification</text>
</g>
<!-- REDIRECT_TO_IDP&#45;&gt;VALIDATE_TOKEN -->
<g id="edge2" class="edge">
<title>REDIRECT_TO_IDP&#45;&gt;VALIDATE_TOKEN</title>
<path fill="none" stroke="#475467" d="M398.86,-82.65C450.14,-82.65 513.38,-82.65 566.09,-82.65"/>
<polygon fill="#475467" stroke="#475467" points="565.95,-85.45 573.95,-82.65 565.95,-79.85 565.95,-85.45"/>
<text xml:space="preserve" text-anchor="middle" x="487.21" y="-85.15" font-family="Arial" font-size="10.00">OIDC_CALLBACK_RECEIVED</text>
</g>
<!-- LOAD_USER_PROFILE -->
<g id="node4" class="node">
<title>LOAD_USER_PROFILE</title>
<path fill="#f5f3ff" stroke="#344054" d="M1055.46,-130.9C1055.46,-130.9 886.46,-130.9 886.46,-130.9 880.46,-130.9 874.46,-124.9 874.46,-118.9 874.46,-118.9 874.46,-106.4 874.46,-106.4 874.46,-100.4 880.46,-94.4 886.46,-94.4 886.46,-94.4 1055.46,-94.4 1055.46,-94.4 1061.46,-94.4 1067.46,-100.4 1067.46,-106.4 1067.46,-106.4 1067.46,-118.9 1067.46,-118.9 1067.46,-124.9 1061.46,-130.9 1055.46,-130.9"/>
<text xml:space="preserve" text-anchor="middle" x="970.96" y="-115.5" font-family="Arial" font-size="12.00">LOAD_USER_PROFILE</text>
<text xml:space="preserve" text-anchor="middle" x="970.96" y="-101.25" font-family="Arial" font-size="12.00">Extract email, name, groups/roles</text>
</g>
<!-- VALIDATE_TOKEN&#45;&gt;LOAD_USER_PROFILE -->
<g id="edge3" class="edge">
<title>VALIDATE_TOKEN&#45;&gt;LOAD_USER_PROFILE</title>
<path fill="none" stroke="#475467" d="M770.47,-92.43C800.59,-95.48 833.96,-98.86 864.66,-101.98"/>
<polygon fill="#475467" stroke="#475467" points="864.34,-104.76 872.58,-102.78 864.9,-99.19 864.34,-104.76"/>
<text xml:space="preserve" text-anchor="middle" x="822.34" y="-102.84" font-family="Arial" font-size="10.00">TOKEN_VALID</text>
</g>
<!-- AUTH_FAILED -->
<g id="node7" class="node">
<title>AUTH_FAILED</title>
<ellipse fill="#fee2e2" stroke="#dc2626" stroke-width="2" cx="1597.31" cy="-66.65" rx="62.65" ry="62.65"/>
<ellipse fill="none" stroke="#dc2626" stroke-width="2" cx="1597.31" cy="-66.65" rx="66.65" ry="66.65"/>
<text xml:space="preserve" text-anchor="middle" x="1597.31" y="-62.37" font-family="Arial" font-size="12.00">AUTH_FAILED</text>
</g>
<!-- VALIDATE_TOKEN&#45;&gt;AUTH_FAILED -->
<g id="edge4" class="edge">
<title>VALIDATE_TOKEN&#45;&gt;AUTH_FAILED</title>
<path fill="none" stroke="#dc2626" d="M770.49,-80.97C954.91,-77.77 1353.78,-70.86 1520.58,-67.96"/>
<polygon fill="#dc2626" stroke="#dc2626" points="1520.32,-70.77 1528.27,-67.83 1520.23,-65.17 1520.32,-70.77"/>
<text xml:space="preserve" text-anchor="middle" x="1130.09" y="-77.89" font-family="Arial" font-size="10.00" fill="#dc2626">TOKEN_INVALID</text>
</g>
<!-- AUTHORIZE_USER -->
<g id="node5" class="node">
<title>AUTHORIZE_USER</title>
<path fill="#ecfdf3" stroke="#344054" d="M1345.21,-130.9C1345.21,-130.9 1204.71,-130.9 1204.71,-130.9 1198.71,-130.9 1192.71,-124.9 1192.71,-118.9 1192.71,-118.9 1192.71,-106.4 1192.71,-106.4 1192.71,-100.4 1198.71,-94.4 1204.71,-94.4 1204.71,-94.4 1345.21,-94.4 1345.21,-94.4 1351.21,-94.4 1357.21,-100.4 1357.21,-106.4 1357.21,-106.4 1357.21,-118.9 1357.21,-118.9 1357.21,-124.9 1351.21,-130.9 1345.21,-130.9"/>
<text xml:space="preserve" text-anchor="middle" x="1274.96" y="-115.5" font-family="Arial" font-size="12.00">AUTHORIZE_USER</text>
<text xml:space="preserve" text-anchor="middle" x="1274.96" y="-101.25" font-family="Arial" font-size="12.00">Allowed group/role decision</text>
</g>
<!-- LOAD_USER_PROFILE&#45;&gt;AUTHORIZE_USER -->
<g id="edge5" class="edge">
<title>LOAD_USER_PROFILE&#45;&gt;AUTHORIZE_USER</title>
<path fill="none" stroke="#475467" d="M1067.93,-112.65C1104.87,-112.65 1146.9,-112.65 1183.32,-112.65"/>
<polygon fill="#475467" stroke="#475467" points="1182.94,-115.45 1190.94,-112.65 1182.94,-109.85 1182.94,-115.45"/>
<text xml:space="preserve" text-anchor="middle" x="1130.09" y="-115.15" font-family="Arial" font-size="10.00">PROFILE_LOADED</text>
</g>
<!-- AUTH_SUCCESS -->
<g id="node6" class="node">
<title>AUTH_SUCCESS</title>
<ellipse fill="#dcfce7" stroke="#16a34a" stroke-width="2" cx="1597.31" cy="-229.65" rx="74.1" ry="74.1"/>
<ellipse fill="none" stroke="#16a34a" stroke-width="2" cx="1597.31" cy="-229.65" rx="78.1" ry="78.1"/>
<text xml:space="preserve" text-anchor="middle" x="1597.31" y="-225.37" font-family="Arial" font-size="12.00">AUTH_SUCCESS</text>
</g>
<!-- AUTHORIZE_USER&#45;&gt;AUTH_SUCCESS -->
<g id="edge6" class="edge">
<title>AUTHORIZE_USER&#45;&gt;AUTH_SUCCESS</title>
<path fill="none" stroke="#16a34a" d="M1327.08,-131.32C1377.4,-149.7 1455.07,-178.06 1514.08,-199.62"/>
<polygon fill="#16a34a" stroke="#16a34a" points="1513.12,-202.25 1521.59,-202.36 1515.04,-196.98 1513.12,-202.25"/>
<text xml:space="preserve" text-anchor="middle" x="1438.21" y="-194.3" font-family="Arial" font-size="10.00" fill="#16a34a">USER_AUTHORIZED</text>
</g>
<!-- AUTHORIZE_USER&#45;&gt;AUTH_FAILED -->
<g id="edge7" class="edge">
<title>AUTHORIZE_USER&#45;&gt;AUTH_FAILED</title>
<path fill="none" stroke="#dc2626" d="M1357.56,-101.16C1400.35,-95.11 1453.62,-87.53 1501.21,-80.65 1507.74,-79.7 1514.52,-78.72 1521.32,-77.72"/>
<polygon fill="#dc2626" stroke="#dc2626" points="1521.57,-80.52 1529.08,-76.59 1520.76,-74.98 1521.57,-80.52"/>
<text xml:space="preserve" text-anchor="middle" x="1438.21" y="-100.67" font-family="Arial" font-size="10.00" fill="#dc2626">USER_NOT_AUTHORIZED</text>
</g>
</g>
</svg>
