<?xml version="1.0" encoding="UTF-8" standalone="no"?>
<svg xmlns="http://www.w3.org/2000/svg" width="900" height="920" viewBox="0 0 900 920" role="img" aria-labelledby="title desc">
  <title id="title">Spring Boot OIDC Authentication State Engine</title>
  <desc id="desc">Top-to-bottom authentication state workflow with success and failure paths.</desc>
  <defs>
    <marker id="arrow" markerWidth="10" markerHeight="10" refX="8" refY="5" orient="auto" markerUnits="strokeWidth">
      <path d="M 0 0 L 10 5 L 0 10 z" fill="#475467"/>
    </marker>
    <marker id="arrow-red" markerWidth="10" markerHeight="10" refX="8" refY="5" orient="auto" markerUnits="strokeWidth">
      <path d="M 0 0 L 10 5 L 0 10 z" fill="#dc2626"/>
    </marker>
    <style>
      text { font-family: Arial, sans-serif; fill: #101828; }
      .label { font-size: 12px; }
      .event { font-size: 11px; fill: #344054; }
      .title { font-size: 20px; font-weight: 700; }
      .node { stroke: #344054; stroke-width: 2; }
      .main { fill: #f9fafb; }
      .start { fill: #dbeafe; stroke: #2563eb; }
      .success { fill: #dcfce7; stroke: #16a34a; }
      .failure { fill: #fee2e2; stroke: #dc2626; }
      .failText { fill: #dc2626; }
      .line { stroke: #475467; stroke-width: 2.5; fill: none; marker-end: url(#arrow); }
      .line-red { stroke: #dc2626; stroke-width: 2.5; fill: none; marker-end: url(#arrow-red); }
    </style>
  </defs>

  <rect width="100%" height="100%" fill="white"/>
  <text class="title" x="450" y="34" text-anchor="middle">Spring Boot OIDC Authentication State Engine</text>

  <ellipse class="node start" cx="450" cy="90" rx="38" ry="38"/>
  <text class="label" x="450" y="94" text-anchor="middle">START</text>

  <rect class="node main" x="320" y="160" width="260" height="56" rx="8"/>
  <text class="label" x="450" y="184" text-anchor="middle">REDIRECT_TO_IDP</text>
  <text class="event" x="450" y="202" text-anchor="middle">Spring Security redirects to Auth0</text>

  <rect class="node main" x="300" y="260" width="300" height="56" rx="8" fill="#fef3c7"/>
  <text class="label" x="450" y="284" text-anchor="middle">VALIDATE_TOKEN</text>
  <text class="event" x="450" y="302" text-anchor="middle">OIDC token and email verification</text>

  <rect class="node main" x="285" y="360" width="330" height="56" rx="8" fill="#f5f3ff"/>
  <text class="label" x="450" y="384" text-anchor="middle">LOAD_USER_PROFILE</text>
  <text class="event" x="450" y="402" text-anchor="middle">Extract email, name, groups/roles</text>

  <rect class="node main" x="305" y="460" width="290" height="56" rx="8" fill="#ecfdf3"/>
  <text class="label" x="450" y="484" text-anchor="middle">AUTHORIZE_USER</text>
  <text class="event" x="450" y="502" text-anchor="middle">Allowed group/role decision</text>

  <ellipse class="node success" cx="450" cy="620" rx="60" ry="42"/>
  <text class="label" x="450" y="624" text-anchor="middle">AUTH_SUCCESS</text>

  <ellipse class="node failure" cx="740" cy="290" rx="70" ry="46"/>
  <text class="label failText" x="740" y="294" text-anchor="middle">AUTH_FAILED</text>

  <ellipse class="node failure" cx="740" cy="490" rx="70" ry="46"/>
  <text class="label failText" x="740" y="494" text-anchor="middle">AUTH_FAILED</text>

  <path class="line" d="M 450 128 L 450 160"/>
  <text class="event" x="468" y="145">LOGIN_REQUESTED</text>

  <path class="line" d="M 450 216 L 450 260"/>
  <text class="event" x="468" y="243">OIDC_CALLBACK_RECEIVED</text>

  <path class="line" d="M 450 316 L 450 360"/>
  <text class="event" x="468" y="343">TOKEN_VALID</text>

  <path class="line-red" d="M 600 290 L 660 290"/>
  <text class="event failText" x="650" y="248" text-anchor="end">TOKEN_INVALID</text>

  <path class="line" d="M 450 416 L 450 460"/>
  <text class="event" x="468" y="443">PROFILE_LOADED</text>

  <path class="line" d="M 450 516 L 450 578"/>
  <text class="event" x="468" y="550">USER_AUTHORIZED</text>

  <path class="line-red" d="M 595 490 L 660 490"/>
  <text class="event failText" x="650" y="448" text-anchor="end">USER_NOT_AUTHORIZED</text>
</svg>

